<svg xmlns="http://www.w3.org/2000/svg" xmlns:xlink="http://www.w3.org/1999/xlink" xml:space="preserve" style="enable-background:new 0 0 250 250;">
	<symbol id="angular" viewBox="0 0 250 250">
		<polygon fill="#DD0031" points="125,30 125,30 125,30 31.9,63.2 46.1,186.3 125,230 125,230 125,230 203.9,186.3 218.1,63.2  "/>
		<polygon fill="#C3002F" points="125,30 125,52.2 125,52.1 125,153.4 125,153.4 125,230 125,230 203.9,186.3 218.1,63.2 125,30  "/>
		<path fill="#FFFFFF" d="M125,52.1L66.8,182.6h0h21.7h0l11.7-29.2h49.4l11.7,29.2h0h21.7h0L125,52.1L125,52.1L125,52.1L125,52.1   L125,52.1z M142,135.4H108l17-40.9L142,135.4z"/>
	</symbol>

	<symbol id="react" viewBox="-11.5 -10.23174 23 20.46348">
		<circle cx="0" cy="0" r="2.05" fill="#61dafb"/>
		<g stroke="#61dafb" stroke-width="1" fill="none">
			<ellipse rx="11" ry="4.2"/>
			<ellipse rx="11" ry="4.2" transform="rotate(60)"/>
			<ellipse rx="11" ry="4.2" transform="rotate(120)"/>
		</g>
	</symbol>

	<symbol id="js" viewBox="0 0 630 630">
		<rect width="630" height="630" fill="#f7df1e"/>
		<path fill="#000000" d="m423.2 492.19c12.69 20.72 29.2 35.95 58.4 35.95 24.53 0 40.2-12.26 40.2-29.2 0-20.3-16.1-27.49-43.1-39.3l-14.8-6.35c-42.72-18.2-71.1-41-71.1-89.2 0-44.4 33.83-78.2 86.7-78.2 37.64 0 64.7 13.1 84.2 47.4l-46.1 29.6c-10.15-18.2-21.1-25.37-38.1-25.37-17.34 0-28.33 11-28.33 25.37 0 17.76 11 24.95 36.4 35.95l14.8 6.34c50.3 21.57 78.7 43.56 78.7 93 0 53.3-41.87 82.5-98.1 82.5-54.98 0-90.5-26.2-107.88-60.54zm-209.13 5.13c9.3 16.5 17.76 30.45 38.1 30.45 19.45 0 31.72-7.61 31.72-37.2v-201.3h59.2v202.1c0 61.3-35.94 89.2-88.4 89.2-47.4 0-74.85-24.53-88.81-54.075z"/>
	</symbol>

	<symbol id="ts" viewBox="0 0 512 512">
	 <rect width="512" height="512" rx="50" fill="#3178c6"/>
	 <path d="m317 407v50c8.1 4.2 18 7.3 29 9.4s23 3.1 35 3.1c12 0 23-1.1 34-3.4 11-2.3 20-6.1 28-11 8.1-5.3 15-12 19-21s7.1-19 7.1-32c0-9.1-1.4-17-4.1-24s-6.6-13-12-18c-5.1-5.3-11-10-18-14s-15-8.2-24-12c-6.6-2.7-12-5.3-18-7.9-5.2-2.6-9.7-5.2-13-7.8-3.7-2.7-6.5-5.5-8.5-8.4-2-3-3-6.3-3-10 0-3.4 0.89-6.5 2.7-9.3s4.3-5.1 7.5-7.1c3.2-2 7.2-3.5 12-4.6 4.7-1.1 9.9-1.6 16-1.6 4.2 0 8.6 0.31 13 0.94 4.6 0.63 9.3 1.6 14 2.9 4.7 1.3 9.3 2.9 14 4.9 4.4 2 8.5 4.3 12 6.9v-47c-7.6-2.9-16-5.1-25-6.5s-19-2.1-31-2.1c-12 0-23 1.3-34 3.8s-20 6.5-28 12c-8.1 5.4-14 12-19 21-4.7 8.4-7 18-7 30 0 15 4.3 28 13 38 8.6 11 22 19 39 27 6.9 2.8 13 5.6 19 8.3s11 5.5 15 8.4c4.3 2.9 7.7 6.1 10 9.5 2.5 3.4 3.8 7.4 3.8 12 0 3.2-0.78 6.2-2.3 9s-3.9 5.2-7.1 7.2-7.1 3.6-12 4.8c-4.7 1.1-10 1.7-17 1.7-11 0-22-1.9-32-5.7-11-3.8-21-9.5-30-17zm-84-123h64v-41h-179v41h64v183h51z" clip-rule="evenodd" fill="#fff" fill-rule="evenodd" style="fill:#fff"/>
	</symbol>

	<symbol id="node" viewBox="0 0 256 289">
		<path d="M127.999999,288.463771 C124.024844,288.463771 120.314699,287.403728 116.869564,285.548656 L81.6231884,264.612838 C76.32298,261.697724 78.9730854,260.637682 80.5631458,260.107661 C87.7184259,257.72257 89.0434775,257.192547 96.4637688,252.952381 C97.2587979,252.422361 98.3188405,252.687372 99.1138718,253.217392 L126.144927,269.383024 C127.20497,269.913045 128.530021,269.913045 129.325053,269.383024 L235.064182,208.165634 C236.124225,207.635611 236.654245,206.575571 236.654245,205.250519 L236.654245,83.0807467 C236.654245,81.7556929 236.124225,80.6956526 235.064182,80.1656324 L129.325053,19.2132506 C128.26501,18.6832305 126.939959,18.6832305 126.144927,19.2132506 L20.4057954,80.1656324 C19.3457551,80.6956526 18.8157349,82.0207041 18.8157349,83.0807467 L18.8157349,205.250519 C18.8157349,206.31056 19.3457551,207.635611 20.4057954,208.165634 L49.2919247,224.861286 C64.9275364,232.811595 74.7329196,223.536234 74.7329196,214.260871 L74.7329196,93.681159 C74.7329196,92.0910985 76.0579711,90.5010358 77.9130428,90.5010358 L91.4285716,90.5010358 C93.0186343,90.5010358 94.6086948,91.8260873 94.6086948,93.681159 L94.6086948,214.260871 C94.6086948,235.196689 83.2132512,247.387164 63.3374737,247.387164 C57.2422362,247.387164 52.4720502,247.387164 38.9565214,240.761906 L11.1304347,224.861286 C4.24016581,220.886129 5.68434189e-14,213.46584 5.68434189e-14,205.515528 L5.68434189e-14,83.3457557 C5.68434189e-14,75.3954465 4.24016581,67.9751552 11.1304347,64.0000006 L116.869564,2.78260752 C123.494824,-0.927535841 132.505176,-0.927535841 139.130436,2.78260752 L244.869565,64.0000006 C251.759834,67.9751552 256,75.3954465 256,83.3457557 L256,205.515528 C256,213.46584 251.759834,220.886129 244.869565,224.861286 L139.130436,286.078676 C135.685299,287.668739 131.710145,288.463771 127.999999,288.463771 L127.999999,288.463771 Z M160.596274,204.455488 C114.219461,204.455488 104.679089,183.254659 104.679089,165.233955 C104.679089,163.643893 106.004141,162.053832 107.859212,162.053832 L121.639752,162.053832 C123.229813,162.053832 124.554864,163.113872 124.554864,164.703935 C126.674947,178.749484 132.770187,185.639753 160.861283,185.639753 C183.122154,185.639753 192.662526,180.604556 192.662526,168.67909 C192.662526,161.788821 190.012423,156.753624 155.296065,153.308489 C126.409938,150.393375 108.389235,144.033126 108.389235,120.977226 C108.389235,99.5113875 126.409938,86.7908901 156.621119,86.7908901 C190.542443,86.7908901 207.238095,98.4513472 209.358178,123.89234 C209.358178,124.687371 209.093167,125.482403 208.563147,126.277434 C208.033127,126.807454 207.238095,127.337474 206.443064,127.337474 L192.662526,127.337474 C191.337475,127.337474 190.012423,126.277434 189.747412,124.952382 C186.567289,110.376813 178.351966,105.606625 156.621119,105.606625 C132.240165,105.606625 129.325053,114.086957 129.325053,120.447205 C129.325053,128.132506 132.770187,130.5176 165.631471,134.757766 C198.227744,138.997931 213.598344,145.093169 213.598344,167.884058 C213.333333,191.20497 194.252589,204.455488 160.596274,204.455488 L160.596274,204.455488 Z" fill="#539E43"></path>
	</symbol>

	<symbol id="html" viewBox="0 0 32 32">
		<path d="M6 28L4 3H28L26 28L16 31L6 28Z" fill="#E44D26"/>
		<path d="M26 5H16V29.5L24 27L26 5Z" fill="#F16529"/>
		<path d="M9.5 17.5L8.5 8H24L23.5 11H11.5L12 14.5H23L22 24L16 26L10 24L9.5 19H12.5L13 21.5L16 22.5L19 21.5L19.5 17.5H9.5Z" fill="white"/>
	</symbol>

	<symbol id="css" viewBox="0 0 32 32">
		<polygon points="5.902 27.201 3.656 2 28.344 2 26.095 27.197 15.985 30 5.902 27.201" style="fill:#1572b6"/>
		<polygon points="16 27.858 24.17 25.593 26.092 4.061 16 4.061 16 27.858" style="fill:#33a9dc"/>
		<polygon points="16 13.191 20.09 13.191 20.372 10.026 16 10.026 16 6.935 16.011 6.935 23.75 6.935 23.676 7.764 22.917 16.282 16 16.282 16 13.191" style="fill:#fff"/>
		<polygon points="16.019 21.218 16.005 21.222 12.563 20.292 12.343 17.827 10.67 17.827 9.24 17.827 9.673 22.68 16.004 24.438 16.019 24.434 16.019 21.218" style="fill:#ebebeb"/>
		<polygon points="19.827 16.151 19.455 20.29 16.008 21.22 16.008 24.436 22.344 22.68 22.391 22.158 22.928 16.151 19.827 16.151" style="fill:#fff"/>
		<polygon points="16.011 6.935 16.011 8.855 16.011 10.018 16.011 10.026 8.555 10.026 8.555 10.026 8.545 10.026 8.483 9.331 8.342 7.764 8.268 6.935 16.011 6.935" style="fill:#ebebeb"/>
		<polygon points="16 13.191 16 15.111 16 16.274 16 16.282 12.611 16.282 12.611 16.282 12.601 16.282 12.539 15.587 12.399 14.02 12.325 13.191 16 13.191" style="fill:#ebebeb"/>
	</symbol>

	<symbol id="bash" viewBox="-8 0 96 96">
    <path d="M73.9497,18.7117 L45.3127,1.7127 C41.8947,-0.3163 37.6817,-0.3163 34.2637,1.7127 L5.6267,18.7117 C2.2097,20.7407 0.1037,24.4897 0.1037,28.5477 L0.1037,62.5457 C0.1037,66.6027 2.2097,70.3537 5.6277,72.3827 L34.2647,89.3787 C35.9737,90.3937 37.8797,90.8997 39.7887,90.8997 C41.6967,90.8997 43.6027,90.3937 45.3117,89.3787 L73.9487,72.3827 C77.3667,70.3537 79.4737,66.6027 79.4737,62.5457 L79.4737,28.5477 C79.4737,24.4897 77.3667,20.7407 73.9497,18.7117 Z" id="Fill-2" fill="#FEFEFE"></path>
    <path d="M35.2656,87.6382 L6.6286,70.6422 C3.8276,68.9792 2.0876,65.8772 2.0876,62.5452 L2.0876,28.5482 C2.0876,25.2162 3.8276,22.1142 6.6276,20.4522 L35.2656,3.4532 C36.6386,2.6382 38.2026,2.2072 39.7886,2.2072 C41.3736,2.2072 42.9376,2.6382 44.3116,3.4532 L72.9486,20.4522 C75.3086,21.8532 76.9006,24.2792 77.3486,27.0002 C76.3986,24.9732 74.2566,24.4222 71.7606,25.8802 L44.6686,42.6142 C41.2906,44.5892 38.7996,46.8052 38.7976,50.8782 L38.7976,84.2612 C38.7956,86.7002 39.7806,88.2802 41.2936,88.7382 C40.7966,88.8242 40.2956,88.8842 39.7886,88.8842 C38.2026,88.8842 36.6386,88.4532 35.2656,87.6382 M73.9496,18.7112 L45.3126,1.7132 C43.6036,0.6982 41.6956,0.1912 39.7886,0.1912 C37.8806,0.1912 35.9726,0.6982 34.2636,1.7132 L5.6266,18.7112 C2.2096,20.7402 0.1036,24.4902 0.1036,28.5482 L0.1036,62.5452 C0.1036,66.6022 2.2096,70.3532 5.6276,72.3822 L34.2646,89.3792 C35.9746,90.3932 37.8806,90.9002 39.7886,90.9002 C41.6966,90.9002 43.6026,90.3932 45.3116,89.3792 L73.9496,72.3822 C77.3676,70.3532 79.4736,66.6022 79.4736,62.5452 L79.4736,28.5482 C79.4736,24.4902 77.3676,20.7402 73.9496,18.7112" id="Fill-4" fill="#3E474A"></path>
    <path d="M66.4428,65.8321 L59.3118,70.1001 C59.1228,70.2101 58.9838,70.3341 58.9828,70.5611 L58.9828,72.4271 C58.9828,72.6551 59.1358,72.7501 59.3248,72.6391 L66.5658,68.2381 C66.7548,68.1281 66.7838,67.9171 66.7848,67.6901 L66.7848,66.0441 C66.7848,65.8171 66.6318,65.7221 66.4428,65.8321" id="Fill-6" fill="#47B353"></path>
    <path d="M51.258,50.1254 C51.489,50.0084 51.679,50.1524 51.682,50.4544 L51.706,52.9214 C52.739,52.5104 53.636,52.4004 54.449,52.5884 C54.625,52.6354 54.703,52.8754 54.631,53.1604 L54.088,55.3464 C54.046,55.5114 53.953,55.6784 53.841,55.7824 C53.794,55.8284 53.746,55.8644 53.698,55.8884 C53.625,55.9254 53.553,55.9374 53.484,55.9234 C53.113,55.8394 52.231,55.6464 50.843,56.3494 C49.387,57.0864 48.878,58.3514 48.888,59.2904 C48.9,60.4114 49.475,60.7514 51.461,60.7854 C54.107,60.8294 55.25,61.9854 55.278,64.6504 C55.305,67.2674 53.908,70.0774 51.771,71.7994 L51.818,74.2414 C51.821,74.5354 51.63,74.8724 51.399,74.9894 L49.953,75.8224 C49.721,75.9394 49.531,75.7954 49.528,75.5014 L49.503,73.0994 C48.264,73.6144 47.009,73.7384 46.207,73.4164 C46.056,73.3574 45.991,73.1344 46.051,72.8804 L46.575,70.6724 C46.617,70.4984 46.709,70.3244 46.834,70.2134 C46.878,70.1704 46.924,70.1374 46.97,70.1144 C47.053,70.0724 47.134,70.0634 47.203,70.0894 C48.067,70.3804 49.172,70.2444 50.235,69.7064 C51.585,69.0234 52.488,67.6464 52.474,66.2784 C52.461,65.0374 51.789,64.5214 50.155,64.5094 C48.075,64.5154 46.136,64.1054 46.104,61.0434 C46.078,58.5224 47.389,55.8994 49.464,54.2404 L49.438,51.7754 C49.435,51.4724 49.62,51.1394 49.858,51.0194 L51.258,50.1254 Z" id="Fill-8" fill="#FEFEFE"></path>
	</symbol>

	<symbol id="go" viewBox="0 0 32 32">
  	<g transform="translate(0 -1020.3622)">
    	<ellipse cx="-907.35657" cy="479.90009" fill="#384e54" color="#000" overflow="visible" rx="3.5793996" ry="3.8207953" style="isolation:auto;mix-blend-mode:normal;solid-color:#000;solid-opacity:1" transform="scale(-1 1) rotate(-60.548)"/>
    	<ellipse cx="-891.57654" cy="507.8461" fill="#384e54" color="#000" overflow="visible" rx="3.5793996" ry="3.8207953" style="isolation:auto;mix-blend-mode:normal;solid-color:#000;solid-opacity:1" transform="rotate(-60.548)"/>
    	<path fill="#384e54" d="M16.091693 1021.3642c-1.105749.01-2.210341.049-3.31609.09C6.8422558 1021.6738 2 1026.3942 2 1032.3622v20h28v-20c0-5.9683-4.667345-10.4912-10.59023-10.908-1.10575-.078-2.212328-.099-3.318077-.09z" color="#000" overflow="visible" style="isolation:auto;mix-blend-mode:normal;solid-color:#000;solid-opacity:1"/>
    	<path fill="#76e1fe" d="M4.6078867 1025.0462c.459564.2595 1.818262 1.2013 1.980983 1.648.183401.5035.159385 1.0657-.114614 1.551-.346627.6138-1.005341.9487-1.696421.9365-.339886-.01-1.720283-.6372-2.042561-.8192-.97754-.5519-1.350795-1.7418-.833686-2.6576.517109-.9158 1.728749-1.2107 2.706299-.6587z" color="#000" overflow="visible" style="isolation:auto;mix-blend-mode:normal;solid-color:#000;solid-opacity:1"/>
    	<rect width="3.0866659" height="3.5313663" x="14.406213" y="1035.6842" fill-opacity=".32850246" color="#000" overflow="visible" ry=".62426329" style="isolation:auto;mix-blend-mode:normal;solid-color:#000;solid-opacity:1"/>
    	<path fill="#76e1fe" d="M16 1023.3622c-9 0-12 3.7153-12 9v20h24c-.04889-7.3562 0-18 0-20 0-5.2848-3-9-12-9z" color="#000" overflow="visible" style="isolation:auto;mix-blend-mode:normal;solid-color:#000;solid-opacity:1"/>
    	<path fill="#76e1fe" d="M27.074073 1025.0462c-.45957.2595-1.818257 1.2013-1.980979 1.648-.183401.5035-.159384 1.0657.114614 1.551.346627.6138 1.005335.9487 1.696415.9365.33988-.01 1.72029-.6372 2.04256-.8192.97754-.5519 1.35079-1.7418.83369-2.6576-.51711-.9158-1.72876-1.2107-2.7063-.6587z" color="#000" overflow="visible" style="isolation:auto;mix-blend-mode:normal;solid-color:#000;solid-opacity:1"/>
    	<circle cx="21.175734" cy="1030.3542" r="4.6537542" fill="#fff" color="#000" overflow="visible" style="isolation:auto;mix-blend-mode:normal;solid-color:#000;solid-opacity:1"/>
    	<circle cx="10.339486" cy="1030.3542" r="4.8316345" fill="#fff" color="#000" overflow="visible" style="isolation:auto;mix-blend-mode:normal;solid-color:#000;solid-opacity:1"/>
    	<rect width="3.6673687" height="4.1063409" x="14.115863" y="1035.9174" fill-opacity=".32941176" color="#000" overflow="visible" ry=".72590536" style="isolation:auto;mix-blend-mode:normal;solid-color:#000;solid-opacity:1"/>
    	<rect width="3.6673687" height="4.1063409" x="14.115863" y="1035.2253" fill="#fffcfb" color="#000" overflow="visible" ry=".72590536" style="isolation:auto;mix-blend-mode:normal;solid-color:#000;solid-opacity:1"/>
    	<path fill-opacity=".32941176" d="M19.999735 1036.5289c0 .838-.871228 1.2682-2.144766 1.1659-.02366 0-.04795-.6004-.254147-.5832-.503669.042-1.095902-.02-1.685964-.02-.612939 0-1.206342.1826-1.68549.017-.110233-.038-.178298.5838-.261532.5816-1.243685-.033-2.078803-.3383-2.078803-1.1618 0-1.2118 1.815635-2.1941 4.055351-2.1941 2.239704 0 4.055351.9823 4.055351 2.1941z" color="#000" overflow="visible" style="isolation:auto;mix-blend-mode:normal;solid-color:#000;solid-opacity:1"/>
    	<path fill="#c38c74" d="M19.977414 1035.7004c0 .5685-.433659.8554-1.138091 1.0001-.291933.06-.630371.096-1.003719.1166-.56405.032-1.207782.031-1.89122.031-.672834 0-1.307182 0-1.864904-.029-.306268-.017-.589429-.043-.843164-.084-.813833-.1318-1.324962-.417-1.324962-1.0344 0-1.1601 1.805642-2.1006 4.03303-2.1006 2.227377 0 4.03303.9405 4.03303 2.1006z" color="#000" overflow="visible" style="isolation:auto;mix-blend-mode:normal;solid-color:#000;solid-opacity:1"/>
    	<ellipse cx="15.944382" cy="1033.8501" fill="#23201f" color="#000" overflow="visible" rx="2.0801733" ry="1.343747" style="isolation:auto;mix-blend-mode:normal;solid-color:#000;solid-opacity:1"/>
    	<circle cx="12.414201" cy="1030.3542" r="1.9630634" fill="#171311" color="#000" overflow="visible" style="isolation:auto;mix-blend-mode:normal;solid-color:#000;solid-opacity:1"/>
    	<circle cx="23.110121" cy="1030.3542" r="1.9630634" fill="#171311" color="#000" overflow="visible" style="isolation:auto;mix-blend-mode:normal;solid-color:#000;solid-opacity:1"/>
    	<path fill="none" stroke="#384e54" stroke-linecap="round" stroke-width=".39730874" d="M5.0055377 1027.2727c-1.170435-1.0835-2.026973-.7721-2.044172-.7463"/>
    	<path fill="none" stroke="#384e54" stroke-linecap="round" stroke-width=".39730874" d="M4.3852457 1026.9152c-1.158557.036-1.346704.6303-1.33881.6523m23.5840973-.3951c1.17043-1.0835 2.02697-.7721 2.04417-.7463"/>
    	<path fill="none" stroke="#384e54" stroke-linecap="round" stroke-width=".39730874" d="M27.321773 1026.673c1.15856.036 1.3467.6302 1.3388.6522"/>
    </g>
	</symbol>

	<symbol id="python" viewBox="0 0 512 512">
		<path d="M194.005,240.252h105.054c29.216,0,52.529-24.101,52.529-53.414V86.603    c0-28.525-24.002-49.871-52.529-54.691c-35.214-5.804-73.478-5.509-105.054,0.097c-44.462,7.87-52.527,24.298-52.527,54.693    v21.453H246.63v31.959H102.033c-30.591,0-57.349,18.394-65.709,53.315c-9.64,40.035-10.033,65.02,0,106.826    c7.476,31.085,25.28,53.314,55.872,53.314h36.101v-48.001C128.296,270.845,158.298,240.252,194.005,240.252L194.005,240.252z" style="fill:#347AB4;"/>
		<path d="M474.975,209.372c-7.575-30.395-21.935-53.315-52.527-53.315h-39.443v46.626    c0,36.199-30.692,66.691-65.71,66.691H212.24c-28.724,0-52.528,24.594-52.528,53.414v100.138    c0,28.524,24.788,45.246,52.528,53.413c33.247,9.737,65.215,11.509,105.054,0c26.462-7.675,52.529-23.116,52.529-53.413v-20.997    H264.867v-32.417h157.58c30.593,0,41.904-21.346,52.527-53.314C485.992,283.244,485.501,251.57,474.975,209.372L474.975,209.372z" style="fill:#FFCA1D;"/>
		<path d="M187.415,89.594c-10.479,0-18.975-8.591-18.975-19.164c0.094-10.668,8.496-19.259,18.975-19.259    c10.385,0,18.976,8.685,18.976,19.259C206.39,81.003,197.894,89.594,187.415,89.594z" style="fill:#FFFFFF;"/>
		<path d="M314.908,460.076c-10.479,0-18.976-8.591-18.976-19.164c0.095-10.668,8.496-19.259,18.976-19.259    c10.385,0,18.976,8.685,18.976,19.259C333.884,451.485,325.388,460.076,314.908,460.076z" style="fill:#FFFFFF;"/>
	</symbol>
</svg>

